<?xml version="1.0" encoding="utf-8"?>
<!-- Generator: Adobe Illustrator 22.0.1, SVG Export Plug-In . SVG Version: 6.00 Build 0)  -->
<svg version="1.1" id="Layer_1" xmlns="http://www.w3.org/2000/svg" xmlns:xlink="http://www.w3.org/1999/xlink" x="0px" y="0px"
	 viewBox="0 0 64 64" style="enable-background:new 0 0 64 64;" xml:space="preserve">
<style type="text/css">
	.st0{fill:#D8CBCB;}
	.st1{fill:#231F20;}
</style>
<polygon class="st0" points="2.9,11.4 27.4,52.7 51.7,11.3 "/>
<path class="st1" d="M41.5,51.5L29.3,21c-0.2-0.5-0.9-0.4-0.9,0.2l0.1,30c0,0.3-0.2,0.5-0.5,0.5l0,0c-0.3,0-0.5-0.2-0.5-0.5
	l-0.2-34.8c0-0.3,0.2-0.5,0.5-0.5l0,0c0.2,0,0.4,0.1,0.4,0.3l13.5,33.4c0.2,0.4,0.7,0.4,0.9,0L56,16.2c0.1-0.2,0.2-0.3,0.4-0.3l0,0
	c0.3,0,0.5,0.2,0.5,0.5l0.2,34.8c0,0.3-0.2,0.5-0.5,0.5l0,0c-0.3,0-0.5-0.2-0.5-0.5l-0.1-29.9c0-0.6-0.8-0.7-1-0.2L43,51.5
	c-0.1,0.2-0.2,0.3-0.4,0.3l-0.6,0C41.8,51.8,41.6,51.7,41.5,51.5z"/>
</svg>
