<svg id="Layer_1" data-name="Layer 1" xmlns="http://www.w3.org/2000/svg" width="600" height="300" viewBox="0 0 600 300"><title>martaannap</title><polygon points="128.4 32.5 267.6 267.9 406.2 32.1 128.4 32.5" fill="#58595b" opacity="0.15"/><path d="M215.6,105.3,197.2,59.6a.7.7,0,0,0-1.4.2l.2,45.1a.7.7,0,0,1-.7.7h-.1a.7.7,0,0,1-.7-.7l-.2-52.1a.8.8,0,0,1,.7-.8h.1a.6.6,0,0,1,.6.5L216,102.6a.7.7,0,0,0,1.3,0l20-50.3a.7.7,0,0,1,.6-.5h0a.9.9,0,0,1,.8.8l.2,52.1a.7.7,0,0,1-.7.7h-.1a.7.7,0,0,1-.7-.7l-.2-44.9a.8.8,0,0,0-1.5-.3l-17.9,45.8a.8.8,0,0,1-.7.5h-.8A.8.8,0,0,1,215.6,105.3Z" fill="#231f20"/><path d="M260.3,105.6h0a.8.8,0,0,1-.7-1l19.8-52.2a.8.8,0,0,1,.7-.5h.8c.3,0,.5.2.7.5l20,52a.7.7,0,0,1-.7,1h-.1a.8.8,0,0,1-.7-.5L281.2,55.5a.8.8,0,0,0-1.5,0L261,105.1A.8.8,0,0,1,260.3,105.6Zm20.2-52.1" fill="#231f20"/><path d="M323.9,87.5v17a.8.8,0,0,1-.7.8h0a.9.9,0,0,1-.8-.8l-.2-52a.8.8,0,0,1,.8-.8h14.8a17.3,17.3,0,0,1,17.3,17.1v1.7c0,9.6-6.1,15.1-15.1,16.1a.6.6,0,0,0-.4,1l14.5,16.4c.5.5.1,1.2-.6,1.2h0c-.2,0-.4,0-.5-.2L336.8,86.6H324.7A.7.7,0,0,0,323.9,87.5Zm0-2.4h13.3c9.7-.1,16.4-5.2,16.4-14.7V68.3a15.2,15.2,0,0,0-15.3-15.1H324.6a.9.9,0,0,0-.9.9Z" fill="#231f20"/><path d="M394.1,104.2l-.2-50.5a.8.8,0,0,0-.8-.8H377.9a.9.9,0,0,1-.8-.8h0a.8.8,0,0,1,.8-.7l33.6-.2c.4,0,.7.3.8.8h0a.8.8,0,0,1-.8.7H396.1a.7.7,0,0,0-.7.8l.2,50.5a.8.8,0,0,1-.7.8h0A.8.8,0,0,1,394.1,104.2Z" fill="#231f20"/><path d="M449.8,54.3l-19,50.1c0,.2-.3.4-.5.4H430a.7.7,0,0,1-.6-.9l20-52.4a.7.7,0,0,1,.6-.4h.8a.7.7,0,0,1,.6.4l20.2,52.3a.6.6,0,0,1-.6.8h-.4c-.2,0-.5-.1-.5-.4L451,54.3A.6.6,0,0,0,449.8,54.3Zm.6-1.6" fill="#231f20"/><path d="M424.7,129.1l-18.9,50.1a.5.5,0,0,1-.6.4H405c-.5,0-.8-.4-.6-.8l19.9-52.4a.6.6,0,0,1,.6-.4h.9a.5.5,0,0,1,.6.4l20.1,52.2c.2.4-.1.8-.6.8h-.3a.5.5,0,0,1-.6-.4l-19.1-49.9A.7.7,0,0,0,424.7,129.1Zm.6-1.6" fill="#231f20"/><path d="M251.1,130l-18.8,49.9a.8.8,0,0,1-.7.5h0a.7.7,0,0,1-.7-1l19.8-52.1a1,1,0,0,1,.8-.6h.6a1,1,0,0,1,.8.6l20,51.9a.8.8,0,0,1-.8,1h0a.8.8,0,0,1-.7-.5l-19-49.7A.7.7,0,0,0,251.1,130Zm.7-1.7" fill="#231f20"/><path d="M330.9,179.6l-32.5-48.3a.6.6,0,0,0-1,.3l.2,47.7a.7.7,0,0,1-.7.8h0a.8.8,0,0,1-.8-.7l-.2-52.1a.8.8,0,0,1,.7-.8h0a.7.7,0,0,1,.6.4l32.5,48.2c.3.5,1.1.2,1.1-.4l-.2-47.6a.8.8,0,0,1,.8-.7h0a.7.7,0,0,1,.7.7l.3,52.1a.9.9,0,0,1-.8.8h0A1,1,0,0,1,330.9,179.6Z" fill="#231f20"/><path d="M386.7,179.4,354.2,131a.6.6,0,0,0-1,.4l.2,47.7a.8.8,0,0,1-.7.8h0a.8.8,0,0,1-.8-.8l-.2-52.1a.7.7,0,0,1,.7-.7h0a.7.7,0,0,1,.6.3l32.5,48.2a.6.6,0,0,0,1.1-.3l-.2-47.6a.8.8,0,0,1,.7-.8h0a.8.8,0,0,1,.8.8l.2,52a.8.8,0,0,1-.7.8h0A.8.8,0,0,1,386.7,179.4Z" fill="#231f20"/><path d="M325.3,238.7V254a.8.8,0,0,1-.7.8h0a.7.7,0,0,1-.8-.8l-.2-52a.8.8,0,0,1,.7-.8h14.1c10.6-.1,18,6.2,18.1,17.4v1.9c0,11.3-7.3,17.3-17.9,17.4H326.1A.9.9,0,0,0,325.3,238.7Zm0-3.1a.8.8,0,0,0,.8.8h12.6c9.7,0,16.4-5.5,16.4-15.8v-1.9c0-10.3-6.8-16-16.4-15.9H325.9a.8.8,0,0,0-.7.8Z" fill="#231f20"/></svg>