<svg xmlns="http://www.w3.org/2000/svg" width="960" height="5in" viewBox="0 0 720 360"><path d="M69.5 157.7L19.2 31.5a2 2 0 0 0-3.8.8v124a2 2 0 0 1-2 2h-.2a2 2 0 0 1-2-2V12.8a2 2 0 0 1 2-2h.2a2.1 2.1 0 0 1 1.9 1.2l55.3 138.1a2.1 2.1 0 0 0 3.8 0L130.1 12a2.1 2.1 0 0 1 1.9-1.2 2 2 0 0 1 2 2v143.5a2 2 0 0 1-2 2h-.2a2 2 0 0 1-2-2V32.6a2.1 2.1 0 0 0-4-.8L75.5 157.7a2 2 0 0 1-1.9 1.2h-2.3a2 2 0 0 1-1.8-1.2zm115 .6a2.1 2.1 0 0 1-2-2.8l55.4-143.4a2 2 0 0 1 1.9-1.3h2a2.1 2.1 0 0 1 1.9 1.3l54.5 143.4a2.1 2.1 0 0 1-1.9 2.8h-.2a2.2 2.2 0 0 1-2-1.4L242.8 20.8a2.3 2.3 0 0 0-4.3 0l-52.1 136.1a2.1 2.1 0 0 1-1.9 1.4zm166.4-49v46.9a2.1 2.1 0 0 1-2.1 2.1 2.2 2.2 0 0 1-2.1-2.1V12.9a2.1 2.1 0 0 1 2.2-2.1h40.9a47.3 47.3 0 0 1 47.3 47.3v4.6c0 26.4-16.9 41.6-41.7 44.1a1.6 1.6 0 0 0-1.1 2.7l39.7 45.2a2.2 2.2 0 0 1-1.6 3.6 2.1 2.1 0 0 1-1.6-.8L386.5 107h-33.2a2.4 2.4 0 0 0-2.4 2.3zm0-6.5h36.8c26.6 0 45.2-14 45.2-40.1v-5.9A41.8 41.8 0 0 0 391.1 15h-37.9a2.3 2.3 0 0 0-2.3 2.3zm175.5 53.4V17.1a2.1 2.1 0 0 0-2.1-2.1h-41.8a2.1 2.1 0 0 1-2.1-2.1 2.1 2.1 0 0 1 2.1-2.1h92.4a2.1 2.1 0 0 1 2.1 2.1 2.1 2.1 0 0 1-2.1 2.1h-42.2a2.1 2.1 0 0 0-2.1 2.1v139.1a2.1 2.1 0 0 1-2.1 2.1 2.2 2.2 0 0 1-2.1-2.1zM651.7 19.5L599 157.1a1.7 1.7 0 0 1-1.6 1.2h-.7a1.8 1.8 0 0 1-1.6-2.4l55.6-144a1.6 1.6 0 0 1 1.6-1.1h2.4a1.6 1.6 0 0 1 1.6 1.1l54.8 144a1.8 1.8 0 0 1-1.7 2.4h-.8a1.8 1.8 0 0 1-1.7-1.2L655 19.5a1.8 1.8 0 0 0-3.3 0zM527.4 204.4l-52.8 137.7a1.6 1.6 0 0 1-1.6 1.1h-.6a1.8 1.8 0 0 1-1.7-2.4l55.6-143.9a1.8 1.8 0 0 1 1.6-1.2h2.4a1.8 1.8 0 0 1 1.7 1.2l54.7 143.9a1.8 1.8 0 0 1-1.6 2.4h-.9a1.6 1.6 0 0 1-1.6-1.1l-52-137.7a1.7 1.7 0 0 0-3.2 0zm-471.3.3L3.5 341.9a2 2 0 0 1-1.9 1.3 2.1 2.1 0 0 1-1.9-2.8L55 197.2a2.3 2.3 0 0 1 2.2-1.5h1.5a2.2 2.2 0 0 1 2.2 1.6l54.4 143a2.2 2.2 0 0 1-2 2.9 2 2 0 0 1-2-1.4L59.6 204.7a1.9 1.9 0 0 0-3.5 0zm203.6 137.5l-88.9-133.3a1.5 1.5 0 0 0-2.7.8v131.4a2.1 2.1 0 0 1-2.1 2.1 2.1 2.1 0 0 1-2.1-2.1V197.8a2.1 2.1 0 0 1 2-2.1 2.1 2.1 0 0 1 1.7.9l88.8 133.1a1.7 1.7 0 0 0 3.1-.9v-131a2.1 2.1 0 0 1 2.1-2.1 2.2 2.2 0 0 1 2.1 2.1V341a2.2 2.2 0 0 1-2.2 2.2 2 2 0 0 1-1.8-1zm160.1 0L331 208.9a1.5 1.5 0 0 0-2.8.8v131.4a2.1 2.1 0 0 1-2.1 2.1 2.1 2.1 0 0 1-2.1-2.1V197.8a2.2 2.2 0 0 1 2.1-2.1 2.2 2.2 0 0 1 1.7.9l88.7 133.1a1.7 1.7 0 0 0 3.1-.9v-131a2.2 2.2 0 0 1 2.1-2.1 2.1 2.1 0 0 1 2.1 2.1V341a2.2 2.2 0 0 1-2.2 2.2 2 2 0 0 1-1.8-1zm214-43.3v42.2a2.1 2.1 0 0 1-2.1 2.1 2.1 2.1 0 0 1-2.1-2.1V197.8a2.2 2.2 0 0 1 2.1-2.1h38.9c29.1 0 49.4 17.4 49.4 48.4v5.2c0 31.2-20.3 47.5-49.4 47.5h-34.7a2.1 2.1 0 0 0-2.1 2.1zm0-8.4a2.1 2.1 0 0 0 2.1 2.1h34.7c26.6 0 45.2-15.1 45.2-43.3v-5.2c0-28.5-18.6-44.2-45.2-44.2h-34.7a2.2 2.2 0 0 0-2.1 2.1z"/></svg>