<?xml version="1.0" encoding="utf-8"?>
<!-- Generator: Adobe Illustrator 22.0.1, SVG Export Plug-In . SVG Version: 6.00 Build 0)  -->
<svg version="1.1" id="Layer_1" xmlns="http://www.w3.org/2000/svg" xmlns:xlink="http://www.w3.org/1999/xlink" x="0px" y="0px"
	 viewBox="0 0 343.2 181.9" style="enable-background:new 0 0 343.2 181.9;" xml:space="preserve">
<style type="text/css">
	.st0{opacity:5.000000e-02;fill:#58595B;enable-background:new    ;}
</style>
<title>Asset 1</title>
<polygon class="st0" points="63.5,25.5 144.3,162.1 224.7,25.3 "/>
<g>
	<path d="M114.1,67.7l-10.7-26.5c0-0.2-0.2-0.4-0.5-0.3c-0.2,0-0.4,0.2-0.3,0.5l0,0l0.1,26.2c0,0.2-0.2,0.4-0.4,0.4h-0.1
		c-0.2,0-0.4-0.2-0.4-0.4l-0.1-30.2c0-0.2,0.2-0.4,0.4-0.5h0.1c0.2,0,0.3,0.1,0.3,0.3l11.8,29.1c0.1,0.2,0.3,0.3,0.5,0.2
		c0.1,0,0.2-0.1,0.2-0.2L126.7,37c0-0.2,0.2-0.3,0.3-0.3l0,0c0.2,0,0.4,0.2,0.5,0.5l0.1,30.2c0,0.2-0.2,0.4-0.4,0.4h-0.1
		c-0.2,0-0.4-0.2-0.4-0.4l-0.1-26.1c0-0.3-0.3-0.4-0.5-0.4s-0.3,0.1-0.4,0.2l-10.4,26.6c-0.1,0.2-0.2,0.3-0.4,0.3h-0.5
		C114.4,68,114.2,67.9,114.1,67.7z"/>
	<path d="M140.1,67.9L140.1,67.9c-0.2,0-0.4-0.1-0.4-0.4c0-0.1,0-0.1,0-0.2L151.2,37c0.1-0.2,0.2-0.3,0.4-0.3h0.4
		c0.2,0,0.4,0.1,0.4,0.3L164,67.2c0.1,0.2,0,0.4-0.2,0.5c-0.1,0-0.1,0-0.2,0h-0.1c-0.2,0-0.3-0.1-0.4-0.3l-11-28.7
		c-0.1-0.2-0.4-0.4-0.6-0.3c-0.1,0-0.2,0.1-0.3,0.3l-10.8,28.8C140.4,67.8,140.2,67.9,140.1,67.9z"/>
	<path d="M177,57.4v9.9c0,0.2-0.2,0.4-0.4,0.5l0,0c-0.2,0-0.4-0.2-0.5-0.5L176,37.1c0-0.3,0.2-0.5,0.5-0.5l0,0h8.6
		c5.5,0,10,4.4,10,9.9v1c0,5.6-3.5,8.8-8.8,9.3c-0.2,0-0.3,0.2-0.3,0.4c0,0.1,0,0.1,0.1,0.2l8.4,9.5c0.3,0.3,0.1,0.7-0.3,0.7l0,0
		l-0.3-0.1l-9.4-10.7h-7c-0.2,0-0.4,0.1-0.5,0.3S176.9,57.4,177,57.4z M176.9,56h7.8c5.6-0.1,9.5-3,9.5-8.5v-1.2
		c0-4.9-4-8.8-8.9-8.8l0,0h-8c-0.3,0-0.5,0.3-0.5,0.5L176.9,56z"/>
	<path d="M217.7,67.1l-0.1-29.3c0-0.3-0.2-0.5-0.5-0.5h-8.8c-0.2,0-0.4-0.2-0.5-0.5l0,0c0-0.2,0.2-0.4,0.5-0.4l19.5-0.1
		c0.2,0,0.4,0.2,0.4,0.4c0,0,0,0,0,0.1l0,0c0,0.2-0.2,0.4-0.4,0.4l0,0h-8.9c-0.2,0-0.4,0.2-0.4,0.4c0,0,0,0,0,0.1l0.1,29.3
		c0,0.2-0.2,0.4-0.4,0.5l0,0C217.9,67.5,217.7,67.3,217.7,67.1z"/>
	<path d="M250,38.2l-11,29.1c-0.1,0.1-0.2,0.2-0.3,0.2h-0.1c-0.2,0-0.4-0.2-0.4-0.4V67l11.6-30.4c0.1-0.1,0.2-0.2,0.3-0.2h0.5
		c0.2,0,0.3,0.1,0.3,0.2l11.7,30.3c0.1,0.2,0,0.4-0.1,0.5c0,0-0.1,0-0.2,0h-0.2c-0.2,0-0.3-0.1-0.3-0.2l-11-29
		c0-0.2-0.2-0.3-0.4-0.3C250.2,37.8,250,38,250,38.2z"/>
	<path d="M235.4,81.6l-11,29.1c0,0.2-0.2,0.3-0.3,0.2l0,0H224c-0.3,0-0.5-0.2-0.3-0.5L235.2,80c0.1-0.1,0.2-0.2,0.3-0.2h0.5
		c0.2-0.1,0.3,0.1,0.3,0.2l11.7,30.3c0.1,0.2-0.1,0.5-0.3,0.5h-0.2c-0.2,0-0.3-0.1-0.3-0.2l0,0l-11.1-29
		C236,81.4,235.7,81.3,235.4,81.6C235.5,81.4,235.5,81.5,235.4,81.6z"/>
	<path d="M134.7,82.1l-10.9,29c-0.1,0.2-0.2,0.3-0.4,0.3l0,0c-0.2,0-0.4-0.1-0.4-0.4c0-0.1,0-0.1,0-0.2l11.5-30.2
		c0.1-0.2,0.3-0.3,0.5-0.3h0.3c0.2,0,0.3,0.2,0.5,0.3l11.6,30.1c0.1,0.2-0.1,0.5-0.3,0.6H147l0,0c-0.2,0-0.3-0.1-0.4-0.3l-11-28.8
		c-0.1-0.2-0.3-0.3-0.5-0.2C134.9,81.9,134.8,82,134.7,82.1z"/>
	<path d="M181,110.9l-18.9-28c-0.1-0.1-0.4-0.1-0.5,0c0,0-0.1,0.1-0.1,0.2l0.1,27.7c0,0.2-0.1,0.4-0.3,0.5c0,0,0,0-0.1,0l0,0
		c-0.2,0-0.4-0.2-0.5-0.4l-0.1-30.2c0-0.2,0.2-0.4,0.4-0.5l0,0c0.2,0,0.3,0.1,0.3,0.2l18.9,28c0.2,0.3,0.6,0.1,0.6-0.2l-0.1-27.6
		c0-0.2,0.2-0.4,0.4-0.4c0,0,0,0,0.1,0l0,0c0.2,0,0.4,0.2,0.4,0.4l0.2,30.2c0,0.2-0.2,0.4-0.5,0.5l0,0
		C181.3,111.1,181.1,111,181,110.9z"/>
	<path d="M213.4,110.7l-18.9-28c-0.1-0.1-0.4-0.1-0.5,0s-0.1,0.1-0.1,0.2l0.1,27.7c0,0.2-0.2,0.4-0.4,0.5l0,0
		c-0.3,0-0.5-0.2-0.5-0.5l0,0L193,80.4c0-0.2,0.2-0.4,0.4-0.4l0,0c0.1,0,0.3,0.1,0.3,0.2l18.9,28c0.1,0.2,0.3,0.2,0.5,0.1
		c0.1-0.1,0.2-0.2,0.2-0.3l-0.1-27.6c0-0.2,0.2-0.4,0.4-0.5l0,0c0.3,0,0.5,0.2,0.5,0.5l0.1,30.2c0,0.3-0.2,0.5-0.5,0.5l0,0
		C213.6,110.9,213.5,110.8,213.4,110.7z"/>
	<path d="M177.8,145.1v8.9c0,0.3-0.2,0.5-0.5,0.5l0,0l0,0c-0.2,0-0.4-0.2-0.4-0.4c0,0,0,0,0-0.1l-0.1-30.2c0-0.2,0.2-0.4,0.4-0.5
		h8.2c6.1,0,10.4,3.7,10.5,10.2v1.1c0,6.6-4.2,10-10.4,10.1h-7.3C178,144.8,177.8,144.9,177.8,145.1z M177.8,143.3
		c0,0.3,0.2,0.5,0.5,0.5l0,0h7.3c5.6,0,9.5-3.2,9.5-9.2v-1.1c0-6-3.9-9.3-9.6-9.2h-7.3c-0.2,0-0.4,0.2-0.4,0.5V143.3z"/>
</g>
</svg>
